<svg viewBox="0 0 14 11" fill="none" xmlns="http://www.w3.org/2000/svg">
    <path d="M4.03973 2.59102V3.95466H-4.43831e-05V2.59102H4.03973ZM0.924672 9.13647V2.11801C0.924672 1.64358 1.017 1.25011 1.20166 0.93761C1.38916 0.62511 1.64484 0.390735 1.96871 0.234485C2.29257 0.0782354 2.66047 0.000110388 3.0724 0.000110388C3.35081 0.000110388 3.60507 0.0214174 3.83518 0.0640314C4.06814 0.106645 4.24143 0.144997 4.35507 0.179088L4.03121 1.54272C3.96018 1.52 3.87211 1.49869 3.767 1.4788C3.66473 1.45892 3.55961 1.44897 3.45166 1.44897C3.18461 1.44897 2.99854 1.51147 2.89342 1.63647C2.78831 1.75863 2.73575 1.93051 2.73575 2.1521V9.13647H0.924672ZM6.96409 0.409202V9.13647H5.14875V0.409202H6.96409ZM13.827 9.13647V10.5129H8.09548V9.13647H13.827Z" fill="black"/>
</svg>